<svg xmlns="http://www.w3.org/2000/svg" viewBox="0 0 512 512">
  <defs>
    <linearGradient id="bg" x1="0%" y1="0%" x2="100%" y2="100%">
      <stop offset="0%" stop-color="#7C3AED"/>
      <stop offset="100%" stop-color="#312E81"/>
    </linearGradient>
    <linearGradient id="starGrad" x1="10%" y1="0%" x2="90%" y2="100%">
      <stop offset="0%" stop-color="#FDE68A"/>
      <stop offset="100%" stop-color="#C9A84C"/>
    </linearGradient>
  </defs>
  <rect width="512" height="512" rx="108" fill="url(#bg)"/>
  <rect width="512" height="512" rx="108" fill="none" stroke="#A78BFA" stroke-width="2" opacity="0.3"/>
  <polygon
    points="256,50 299,179 434,179 328,256 366,385 256,308 146,385 184,256 78,179 213,179"
    fill="url(#starGrad)"
  />
  <polygon
    points="256,78 292,179 408,179 316,246 350,365 256,295 162,365 196,246 104,179 220,179"
    fill="white" opacity="0.12"
  />
  <line x1="92" y1="108" x2="92" y2="136" stroke="#FDE68A" stroke-width="3.5" stroke-linecap="round" opacity="0.85"/>
  <line x1="78" y1="122" x2="106" y2="122" stroke="#FDE68A" stroke-width="3.5" stroke-linecap="round" opacity="0.85"/>
  <line x1="83" y1="113" x2="101" y2="131" stroke="#FDE68A" stroke-width="2" stroke-linecap="round" opacity="0.5"/>
  <line x1="101" y1="113" x2="83" y2="131" stroke="#FDE68A" stroke-width="2" stroke-linecap="round" opacity="0.5"/>
  <line x1="406" y1="90" x2="406" y2="114" stroke="#FDE68A" stroke-width="3" stroke-linecap="round" opacity="0.75"/>
  <line x1="394" y1="102" x2="418" y2="102" stroke="#FDE68A" stroke-width="3" stroke-linecap="round" opacity="0.75"/>
  <line x1="398" y1="94" x2="414" y2="110" stroke="#FDE68A" stroke-width="1.8" stroke-linecap="round" opacity="0.45"/>
  <line x1="414" y1="94" x2="398" y2="110" stroke="#FDE68A" stroke-width="1.8" stroke-linecap="round" opacity="0.45"/>
  <line x1="120" y1="390" x2="120" y2="408" stroke="#A78BFA" stroke-width="2.5" stroke-linecap="round" opacity="0.6"/>
  <line x1="111" y1="399" x2="129" y2="399" stroke="#A78BFA" stroke-width="2.5" stroke-linecap="round" opacity="0.6"/>
  <line x1="390" y1="385" x2="390" y2="403" stroke="#A78BFA" stroke-width="2.5" stroke-linecap="round" opacity="0.6"/>
  <line x1="381" y1="394" x2="399" y2="394" stroke="#A78BFA" stroke-width="2.5" stroke-linecap="round" opacity="0.6"/>
  <circle cx="178" cy="88"  r="5" fill="#FDE68A" opacity="0.5"/>
  <circle cx="344" cy="70"  r="4" fill="#FDE68A" opacity="0.4"/>
  <circle cx="440" cy="240" r="4" fill="#A78BFA" opacity="0.55"/>
  <circle cx="68"  cy="268" r="4" fill="#A78BFA" opacity="0.5"/>
</svg>